<svg xmlns="http://www.w3.org/2000/svg" width="432" height="106" viewBox="0 0 432 106">
  <g fill="none" fill-rule="evenodd" transform="translate(1 1)">
    <line x1="34.5" x2="34.5" y1=".385" y2="103.615" stroke="#F5F9FB" stroke-linecap="square"/>
    <line x1="68.5" x2="68.5" y1=".385" y2="103.615" stroke="#F5F9FB" stroke-linecap="square"/>
    <line x1="100.5" x2="100.5" y1=".385" y2="103.615" stroke="#F5F9FB" stroke-linecap="square"/>
    <line x1="134.5" x2="134.5" y1=".385" y2="103.615" stroke="#F5F9FB" stroke-linecap="square"/>
    <line x1="168.5" x2="168.5" y1=".385" y2="103.615" stroke="#F5F9FB" stroke-linecap="square"/>
    <line x1="202.5" x2="202.5" y1=".385" y2="103.615" stroke="#F5F9FB" stroke-linecap="square"/>
    <line x1="234.5" x2="234.5" y1=".385" y2="103.615" stroke="#F5F9FB" stroke-linecap="square"/>
    <line x1="266.5" x2="266.5" y1=".385" y2="103.615" stroke="#F5F9FB" stroke-linecap="square"/>
    <line x1="298.5" x2="298.5" y1=".385" y2="103.615" stroke="#F5F9FB" stroke-linecap="square"/>
    <line x1="332.5" x2="332.5" y1=".385" y2="103.615" stroke="#F5F9FB" stroke-linecap="square"/>
    <line x1="366.5" x2="366.5" y1=".385" y2="103.615" stroke="#A9B5C7" stroke-linecap="square"/>
    <line x1="398.5" x2="398.5" y1=".385" y2="103.615" stroke="#F5F9FB" stroke-linecap="square"/>
    <rect width="429" height="103" x=".5" y=".5" stroke="#E6ECF2"/>
    <polyline stroke="#80E9FF" stroke-width="1.5" points="0 85 34.5 85 52.832 76.501 68.5 85 84.824 83.066 100.5 76.501 118.098 86.257 134.5 85 151.609 77.637 168.5 82.559 189.771 71.583 202.5 75.501 219.137 71 247.421 81 266.5 71.583 281.796 79.587 298.5 81.092 314.865 86.257 332.5 83.066 347.558 88.173 366.5 86.257 382.314 87.451 398.5 85 417 81.033 430 75.501"/>
    <polyline stroke="#0073E6" stroke-width="1.5" points="0 81.092 34.5 77.248 53.078 68.667 68.5 75.501 84.121 75.501 100.5 70.462 119.813 72.878 134.5 64.5 151.685 66.5 168.5 63.448 186.77 47 202.5 64.5 218.749 66.5 234.5 62 250.327 65.63 266.5 42 298.5 39.5 315.277 31.667 332.5 37 349.103 27.5 366.5 34 382.316 28.63 398.5 31.667 413.657 24.353 421.829 21.964 430 19.576"/>
    <polyline stroke="#96F" stroke-linejoin="round" stroke-width="1.5" points="0 99.325 18.441 95.481 52 99.318 68.5 95.481 100.5 100.5 117.474 99 134.389 99.318 153.094 97.934 168.5 97.99 184.398 100.5 202.5 97.5 218.962 100 234.5 97.934 266.5 99.325 283.801 99 300 97.934 316.791 97.934 332.5 96 366.5 100 382.172 97 399.61 99 430 99"/>
    <polyline stroke="#00D924" stroke-linejoin="round" stroke-width="1.5" points="0 53.646 14.105 41.235 34.5 34.428 68.5 40.038 84.629 50.492 100.5 66.5 118.991 66.5 134.5 75.501 151.949 71 168.5 69.715 184.352 64.5 202.5 41.235 218.15 53.646 234.5 47 250.531 48 266.5 53.646 282.126 53.646 298.5 59.5 315.711 52 334.244 50.492 349.913 54.964 366.5 52 381.625 57.989 398.5 48.5 416.828 47 430 40.038"/>
    <circle cx="366.5" cy="33.5" r="1.5" fill="#0073E6" stroke="#0073E6" stroke-opacity=".26" stroke-width="6"/>
    <circle cx="366.5" cy="86.5" r="1.5" fill="#80E9FF" stroke="#80E9FF" stroke-opacity=".305" stroke-width="6"/>
    <circle cx="366.5" cy="99.5" r="1.5" fill="#96F" stroke="#96F" stroke-opacity=".206" stroke-width="6"/>
    <circle cx="366.5" cy="52.5" r="1.5" fill="#00D924" stroke="#00D924" stroke-opacity=".176" stroke-width="6"/>
    <polygon fill="#FFF" stroke="#80E9FF" stroke-linejoin="round" stroke-width="1.5" points="134.5 82 137 87 132 87"/>
    <polygon fill="#FFF" stroke="#0073E6" stroke-linejoin="round" stroke-width="1.5" points="134.5 62 137 67 132 67"/>
    <polygon fill="#FFF" stroke="#80E9FF" stroke-linejoin="round" stroke-width="1.5" points="68.5 82 71 87 66 87"/>
    <polygon fill="#FFF" stroke="#00D924" stroke-linejoin="round" stroke-width="1.5" points="68.5 37 71 42 66 42"/>
    <polygon fill="#FFF" stroke="#00D924" stroke-linejoin="round" stroke-width="1.5" points="34.5 32 37 37 32 37"/>
  </g>
</svg>
